<svg xmlns="http://www.w3.org/2000/svg" width="1080" height="2400" viewBox="0 0 1080 2400"><style>@font-face{font-family:&apos;JetBrains Mono&apos;;font-weight:400;src:url(fonts/jetbrainsmono_regular.ttf)}@font-face{font-family:&apos;JetBrains Mono&apos;;font-weight:600;src:url(fonts/jetbrainsmono_semibold.ttf)}@font-face{font-family:&apos;JetBrains Mono&apos;;font-weight:700;src:url(fonts/jetbrainsmono_bold.ttf)}</style><rect width="1080" height="2400" fill="#F5F9FA"/><clipPath id="iconclip_l"><rect width="120" height="120" x="48" y="84" rx="30"/></clipPath><text x="48" y="138" fill="#1F2A30" dominant-baseline="central" font-family="'Times New Roman','SimSun',serif" font-size="60" font-weight="600" text-anchor="start">设置</text><rect width="984" height="372" x="48" y="216" fill="#E8F0F3" rx="72"/><text x="96" y="300" fill="#1F2A30" dominant-baseline="central" font-family="'Times New Roman','SimSun',serif" font-size="48" font-weight="600" text-anchor="start">外观</text><line x1="96" x2="984" y1="336" y2="336" stroke="#CBD9DE" stroke-linecap="butt" stroke-opacity="1" stroke-width="3"/><text x="96" y="427.5" fill="#5A6B74" dominant-baseline="central" font-family="'Times New Roman','SimSun',serif" font-size="39" font-weight="400" text-anchor="start">主题</text><rect width="216" height="111" x="288" y="372" fill="#177CB0" rx="55.5"/><text x="396" y="427.5" fill="#FFF" dominant-baseline="central" font-family="'Times New Roman','SimSun',serif" font-size="39" font-weight="600" text-anchor="middle">跟随系统</text><rect width="216" height="111" x="528" y="372" fill="#F5F9FA" stroke="#CBD9DE" stroke-opacity="1" stroke-width="3" rx="55.5"/><text x="636" y="427.5" fill="#5A6B74" dominant-baseline="central" font-family="'Times New Roman','SimSun',serif" font-size="39" font-weight="400" text-anchor="middle">亮色</text><rect width="216" height="111" x="768" y="372" fill="#F5F9FA" stroke="#CBD9DE" stroke-opacity="1" stroke-width="3" rx="55.5"/><text x="876" y="427.5" fill="#5A6B74" dominant-baseline="central" font-family="'Times New Roman','SimSun',serif" font-size="39" font-weight="400" text-anchor="middle">暗色</text><text x="96" y="525" fill="#7C8B92" dominant-baseline="central" font-family="'Times New Roman','SimSun',serif" font-size="36" font-weight="400" text-anchor="start">跟随系统时，深色模式开关即时生效</text><rect width="984" height="627" x="48" y="624" fill="#E8F0F3" rx="72"/><text x="96" y="708" fill="#1F2A30" dominant-baseline="central" font-family="'Times New Roman','SimSun',serif" font-size="48" font-weight="600" text-anchor="start">接入信息</text><line x1="96" x2="984" y1="744" y2="744" stroke="#CBD9DE" stroke-linecap="butt" stroke-opacity="1" stroke-width="3"/><text x="96" y="816" fill="#5A6B74" dominant-baseline="central" font-family="'Times New Roman','SimSun',serif" font-size="42" font-weight="400" text-anchor="start">服务商</text><text x="984" y="816" fill="#1F2A30" dominant-baseline="central" font-family="'Times New Roman','SimSun',serif" font-size="42" font-weight="500" text-anchor="end">Z.AI</text><text x="96" y="909" fill="#5A6B74" dominant-baseline="central" font-family="'Times New Roman','SimSun',serif" font-size="42" font-weight="400" text-anchor="start">套餐</text><text x="984" y="909" fill="#1F2A30" dominant-baseline="central" font-family="'Times New Roman','SimSun',serif" font-size="42" font-weight="500" text-anchor="end">coding-plan</text><text x="96" y="1002" fill="#5A6B74" dominant-baseline="central" font-family="'Times New Roman','SimSun',serif" font-size="42" font-weight="400" text-anchor="start">状态</text><text x="984" y="1002" fill="#21A675" dominant-baseline="central" font-family="'Times New Roman','SimSun',serif" font-size="42" font-weight="500" text-anchor="end">127.0.0.1:8080 · 运行中</text><text x="96" y="1095" fill="#5A6B74" dominant-baseline="central" font-family="'Times New Roman','SimSun',serif" font-size="42" font-weight="400" text-anchor="start">登录</text><text x="984" y="1095" fill="#1F2A30" dominant-baseline="central" font-family="'Times New Roman','SimSun',serif" font-size="42" font-weight="500" text-anchor="end">已登录</text><text x="96" y="1194" fill="#7C8B92" dominant-baseline="central" font-family="'Times New Roman','SimSun',serif" font-size="36" font-weight="400" text-anchor="start">切换服务商/套餐在主页「接入配置」卡</text><rect width="984" height="876" x="48" y="1287" fill="#E8F0F3" rx="72"/><text x="96" y="1371" fill="#1F2A30" dominant-baseline="central" font-family="'Times New Roman','SimSun',serif" font-size="48" font-weight="600" text-anchor="start">关于</text><line x1="96" x2="984" y1="1407" y2="1407" stroke="#CBD9DE" stroke-linecap="butt" stroke-opacity="1" stroke-width="3"/><text x="96" y="1479" fill="#5A6B74" dominant-baseline="central" font-family="'Times New Roman','SimSun',serif" font-size="42" font-weight="400" text-anchor="start">应用</text><text x="984" y="1479" fill="#1F2A30" dominant-baseline="central" font-family="'Times New Roman','SimSun',serif" font-size="42" font-weight="500" text-anchor="end">ZCode Proxy</text><text x="96" y="1572" fill="#5A6B74" dominant-baseline="central" font-family="'Times New Roman','SimSun',serif" font-size="42" font-weight="400" text-anchor="start">版本</text><text x="984" y="1572" fill="#1F2A30" dominant-baseline="central" font-family="'Times New Roman','SimSun',serif" font-size="42" font-weight="500" text-anchor="end">4.7.2</text><text x="96" y="1665" fill="#5A6B74" dominant-baseline="central" font-family="'Times New Roman','SimSun',serif" font-size="42" font-weight="400" text-anchor="start">控制协议</text><text x="984" y="1665" fill="#1F2A30" dominant-baseline="central" font-family="'Times New Roman','SimSun',serif" font-size="42" font-weight="500" text-anchor="end">Node · 127.0.0.1 本地监听</text><text x="96" y="1806" fill="#5A6B74" dominant-baseline="central" font-family="'Times New Roman','SimSun',serif" font-size="42" font-weight="400" text-anchor="start">自动检查更新</text><text x="96" y="1863" fill="#7C8B92" dominant-baseline="central" font-family="'Times New Roman','SimSun',serif" font-size="36" font-weight="400" text-anchor="start">启动时查询 GitHub Releases</text><rect width="156" height="96" x="828" y="1782" fill="#177CB0" rx="48"/><circle cx="936" cy="1830" r="36" fill="#FFF"/><text x="96" y="1920" fill="#5A6B74" dominant-baseline="central" font-family="'Times New Roman','SimSun',serif" font-size="42" font-weight="400" text-anchor="start">更新</text><text x="216" y="1920" fill="#21A675" dominant-baseline="central" font-family="'Times New Roman','SimSun',serif" font-size="39" font-weight="400" text-anchor="start">已是最新（v4.7.2）</text><text x="984" y="1920" fill="#177CB0" dominant-baseline="central" font-family="'Times New Roman','SimSun',serif" font-size="39" font-weight="400" text-anchor="end">检查更新</text><text x="96" y="1995" fill="#7C8B92" dominant-baseline="central" font-family="'Times New Roman','SimSun',serif" font-size="36" font-weight="400" text-anchor="start">更新来自 GitHub Releases · TriDefender/zcode-api</text><text x="96" y="2046" fill="#7C8B92" dominant-baseline="central" font-family="'Times New Roman','SimSun',serif" font-size="36" font-weight="400" text-anchor="start">上游：Z.AI / 智谱开放平台（OAuth 登录）</text><line x1="0" x2="1080" y1="2124" y2="2124" stroke="#CBD9DE" stroke-linecap="butt" stroke-opacity="1" stroke-width="3"/><rect width="1080" height="273" x="0" y="2127" fill="#E0EAEE" rx="0"/><path fill="#5A6B74" d="M10 20v-6h4v6h5v-8h3L12 3 2 12h3v8z" transform="translate(147.0,2154.0) scale(2.750)"/><text x="180" y="2268" fill="#5A6B74" dominant-baseline="central" font-family="'Times New Roman','SimSun',serif" font-size="33" font-weight="400" text-anchor="middle">主页</text><path fill="#5A6B74" d="M3 18h18v-2H3v2zm0-5h18v-2H3v2zm0-7v2h18V6H3z" transform="translate(507.0,2154.0) scale(2.750)"/><text x="540" y="2268" fill="#5A6B74" dominant-baseline="central" font-family="'Times New Roman','SimSun',serif" font-size="33" font-weight="400" text-anchor="middle">日志</text><rect width="228" height="78" x="786" y="2148" fill="#D8EAEF" rx="39"/><path fill="#177CB0" d="M19.14 12.94c.04-.3.06-.61.06-.94 0-.32-.02-.64-.07-.94l2.03-1.58c.18-.14.23-.41.12-.61l-1.92-3.32c-.12-.22-.37-.29-.59-.22l-2.39.96c-.5-.38-1.03-.7-1.62-.94l-.36-2.54c-.04-.24-.24-.41-.48-.41h-3.84c-.24 0-.43.17-.47.41l-.36 2.54c-.59.24-1.13.57-1.62.94l-2.39-.96c-.22-.08-.47 0-.59.22L2.74 8.87c-.12.21-.08.47.12.61l2.03 1.58c-.05.3-.09.63-.09.94s.02.64.07.94l-2.03 1.58c-.18.14-.23.41-.12.61l1.92 3.32c.12.22.37.29.59.22l2.39-.96c.5.38 1.03.7 1.62.94l.36 2.54c.05.24.24.41.48.41h3.84c.24 0 .44-.17.47-.41l.36-2.54c.59-.24 1.13-.56 1.62-.94l2.39.96c.22.08.47 0 .59-.22l1.92-3.32c.12-.22.07-.47-.12-.61l-2.01-1.58zM12 15.6c-1.98 0-3.6-1.62-3.6-3.6s1.62-3.6 3.6-3.6 3.6 1.62 3.6 3.6-1.62 3.6-3.6 3.6z" transform="translate(867.0,2154.0) scale(2.750)"/><text x="900" y="2268" fill="#177CB0" dominant-baseline="central" font-family="'Times New Roman','SimSun',serif" font-size="33" font-weight="600" text-anchor="middle">设置</text></svg>